<svg width="10" height="10" viewBox="0 0 10 10" fill="none" xmlns="http://www.w3.org/2000/svg">
<path d="M0.939969 2.81554C0.980609 2.7748 1.02889 2.74248 1.08204 2.72042C1.13519 2.69836 1.19217 2.68701 1.24972 2.68701C1.30727 2.68701 1.36425 2.69836 1.4174 2.72042C1.47052 2.74246 1.51878 2.77477 1.5594 2.81548L1.55937 2.81544L1.47098 2.90381L1.55947 2.81554L0.939969 2.81554ZM0.939969 2.81554L1.02847 2.90382L0.939969 2.81554ZM5.11949 7.16427L5.1674 7.27972C5.11425 7.30177 5.05727 7.31313 4.99972 7.31313C4.94217 7.31313 4.88519 7.30177 4.83204 7.27972C4.77894 7.25768 4.7307 7.2254 4.69008 7.18471C4.69004 7.18467 4.69001 7.18463 4.68997 7.1846L0.940193 3.43482C0.940168 3.4348 0.940143 3.43477 0.940119 3.43475L5.11949 7.16427ZM5.11949 7.16427L5.1674 7.27972C5.2205 7.25768 5.26874 7.2254 5.30936 7.18471L5.11949 7.16427ZM8.44007 2.81544L4.99972 6.2564L5.30947 7.1846L9.05936 3.43471C9.10002 3.39405 9.13228 3.34577 9.15428 3.29264C9.17629 3.23952 9.18761 3.18257 9.18761 3.12507C9.18761 3.06757 9.17629 3.01062 9.15428 2.9575C9.13228 2.90437 9.10002 2.85609 9.05936 2.81543C9.0187 2.77477 8.97042 2.74251 8.9173 2.72051C8.86417 2.6985 8.80723 2.68718 8.74972 2.68718C8.69221 2.68718 8.63527 2.6985 8.58215 2.72051L8.62998 2.83599L8.58214 2.72051C8.52902 2.74251 8.48074 2.77477 8.44008 2.81543L8.44007 2.81544Z" fill="#1D252C" stroke="#1D252C" stroke-width="0.25"/>
</svg>
