<svg width="10" height="6" viewBox="0 0 10 6" fill="none" xmlns="http://www.w3.org/2000/svg">
<path d="M0.939969 0.815544C0.980609 0.774801 1.02889 0.742476 1.08204 0.72042C1.13519 0.698364 1.19217 0.687012 1.24972 0.687012C1.30727 0.687012 1.36425 0.698364 1.4174 0.72042C1.47052 0.742464 1.51878 0.774766 1.5594 0.815477L1.55937 0.81544L1.47098 0.903813L1.55947 0.815544L0.939969 0.815544ZM0.939969 0.815544L1.02847 0.90382L0.939969 0.815544ZM5.11949 5.16427L5.1674 5.27972C5.11425 5.30177 5.05727 5.31313 4.99972 5.31313C4.94217 5.31313 4.88519 5.30177 4.83204 5.27972C4.77894 5.25768 4.7307 5.2254 4.69008 5.18471C4.69004 5.18467 4.69001 5.18463 4.68997 5.1846L0.940193 1.43482C0.940168 1.4348 0.940143 1.43477 0.940119 1.43475L5.11949 5.16427ZM5.11949 5.16427L5.1674 5.27972C5.2205 5.25768 5.26874 5.2254 5.30936 5.18471L5.11949 5.16427ZM8.44007 0.81544L4.99972 4.2564L5.30947 5.1846L9.05936 1.43471C9.10002 1.39405 9.13228 1.34577 9.15428 1.29264C9.17629 1.23952 9.18761 1.18257 9.18761 1.12507C9.18761 1.06757 9.17629 1.01062 9.15428 0.957496C9.13228 0.904366 9.10002 0.856093 9.05936 0.815432C9.0187 0.774769 8.97042 0.742514 8.9173 0.720508C8.86417 0.698502 8.80723 0.687175 8.74972 0.687175C8.69221 0.687175 8.63527 0.698502 8.58215 0.720508L8.62998 0.835993L8.58214 0.720508C8.52902 0.742514 8.48074 0.77477 8.44008 0.815432L8.44007 0.81544Z" fill="#1D252C" stroke="#1D252C" stroke-width="0.25"/>
</svg>
